<svg width="202" height="175" viewBox="0 0 202 175" fill="none" xmlns="http://www.w3.org/2000/svg">
<g opacity="0.4">
<g filter="url(#filter0_dd_6301_2605)">
<path d="M105.52 23.9269C105.889 23.1897 106.625 22.8209 107.529 22.9552C108.366 23.0895 108.969 23.7237 109.069 24.5948L109.671 28.6466C111.338 29.1167 112.972 29.6983 114.56 30.3878L117.575 27.7423C118.21 27.074 119.013 27.0064 119.85 27.4405C120.587 27.8434 120.888 28.6466 120.721 29.5509L119.883 33.5353C121.286 34.5352 122.618 35.6317 123.869 36.8165L127.619 35.3097C128.456 34.9411 129.226 35.1422 129.862 35.9122C130.43 36.5151 130.497 37.3857 130.03 38.09L127.853 41.5714C128.859 42.977 129.662 44.4839 130.43 46.0909L134.516 45.9239C135.386 45.8898 136.123 46.3595 136.424 47.1964C136.691 48.0334 136.424 48.8034 135.72 49.3048L132.541 51.8839C132.976 53.5239 133.31 55.1984 133.443 57.0069L137.329 58.2452C138.166 58.5467 138.7 59.1828 138.7 60.0528C138.7 60.9569 138.166 61.5942 137.329 61.8956L133.445 63.0997C133.381 63.9626 133.27 64.8099 133.125 65.6349C131.484 64.8928 129.721 64.3975 127.878 64.1925C127.968 63.5674 128.037 62.9354 128.085 62.297H109.405C107.865 66.6155 104.783 68.9923 100.9 68.9923C100.331 68.9923 99.6268 68.9269 98.5884 68.6583L88.7456 84.7638C92.2386 86.4932 96.1911 87.5157 100.427 87.6007V88.5997C100.427 90.03 100.64 91.4075 101.033 92.6974C101.022 92.6974 101.011 92.6984 101 92.6984C100.098 92.6984 99.2583 92.5985 98.354 92.5314L96.4468 96.214C96.0782 96.9508 95.3416 97.352 94.4048 97.2179C93.5677 97.0508 92.9977 96.4482 92.8647 95.5441L92.2944 91.4923C90.6201 91.058 88.9797 90.4207 87.3726 89.7179L84.3931 92.4308C83.7575 93.0321 82.9532 93.1666 82.1177 92.6984C81.3805 92.2969 81.0785 91.4936 81.2456 90.6222L82.0825 86.6036C80.6769 85.6323 79.3038 84.5276 78.064 83.2892L74.3491 84.8634C73.512 85.1977 72.7075 85.0308 72.0718 84.2609C71.5032 83.658 71.4356 82.788 71.937 82.0509L74.0806 78.5685C73.1106 77.1642 72.307 75.6555 71.5356 74.0499L67.4175 74.2491C66.5475 74.282 65.8101 73.8138 65.5415 72.9767C65.2744 72.141 65.5091 71.3366 66.2134 70.8009L69.4272 68.2579C68.9916 66.6494 68.6229 64.9091 68.5229 63.1349L64.6392 61.8966C63.7692 61.5952 63.2983 60.9577 63.2983 60.0548C63.2985 59.1508 63.7689 58.5143 64.6372 58.2472L68.5229 57.0079C68.623 55.1994 68.992 53.5248 69.4263 51.8849L66.2114 49.3068C65.5086 48.8053 65.2739 48.035 65.5425 47.1964C65.8097 46.3608 66.5461 45.8921 67.4175 45.9249L71.5356 46.0929C72.3056 44.4872 73.1105 42.9781 74.1147 41.5724L71.9048 38.0548C71.6928 37.7291 71.5933 37.3426 71.6235 36.9552C71.6538 36.5678 71.8118 36.2011 72.0718 35.9122C72.7075 35.1424 73.5121 34.9411 74.3491 35.3097L78.064 36.8165C79.3187 35.6233 80.6621 34.5265 82.0825 33.5362L81.2446 29.5509C81.0789 28.6467 81.3801 27.8425 82.1157 27.4425C82.92 27.0068 83.7231 27.0737 84.3931 27.7423L87.4058 30.3878C88.995 29.691 90.6282 29.0981 92.2944 28.6134L92.8647 24.5948C92.9977 23.7251 93.5678 23.0895 94.4048 22.9552C95.3417 22.8211 96.0782 23.1899 96.4468 23.9269L98.354 27.6095C99.2926 27.5423 100.096 27.4757 101 27.4757C101.87 27.4757 102.675 27.5424 103.578 27.6095L105.52 23.9269ZM85.1304 37.6212C78.1989 42.5755 73.813 50.7785 73.813 60.087C73.8131 69.3283 78.1318 77.4301 84.896 82.42L94.8062 66.214C92.9647 64.2726 92.1616 62.3294 92.1616 60.2208C92.1617 58.0437 92.9976 56.0027 94.8062 54.1271L85.1304 37.6212ZM100.967 56.1349C98.8245 56.1349 96.8814 57.911 96.8813 60.1866C96.8813 62.4295 98.8244 64.2726 100.967 64.2726C103.243 64.2726 105.119 62.4295 105.119 60.1866C105.119 57.911 103.243 56.1349 100.967 56.1349ZM101 32.5636C96.6476 32.5636 92.5628 33.5354 88.98 35.3097L98.5903 51.715C99.6615 51.4822 100.33 51.4152 100.9 51.4152C104.75 51.4152 107.83 53.725 109.405 57.9435H128.087C127.049 43.6466 115.599 32.5638 101 32.5636Z" fill="white"/>
</g>
<g filter="url(#filter1_dd_6301_2605)">
<path d="M122.439 73.0431C126.307 73.0431 129.784 74.3785 132.126 76.7806C134.052 77.0336 135.869 77.8201 137.372 79.0515C134.745 73.5306 129.303 70.4431 122.439 70.4431C115.668 70.4431 110.189 73.5265 107.53 79.0306C108.908 77.9088 110.549 77.1579 112.299 76.8494C114.597 74.3431 118.218 73.0431 122.439 73.0431Z" fill="white"/>
<path d="M130.771 95.4428C128.604 95.4427 126.522 94.5982 124.967 93.0886L124.963 93.0845C124.784 92.9494 124.591 92.8328 124.388 92.7365C123.777 92.4555 123.111 92.3125 122.438 92.3178C121.576 92.3178 120.919 92.5324 120.49 92.7365C120.287 92.8327 120.093 92.9493 119.913 93.0845L119.909 93.0886C118.929 94.0396 117.731 94.7353 116.42 95.1147C115.108 95.494 113.724 95.5453 112.388 95.2641C111.052 94.9829 109.805 94.3777 108.758 93.5019C107.711 92.626 106.895 91.5063 106.382 90.2412C105.869 88.976 105.674 87.6042 105.816 86.2463C105.957 84.8884 106.43 83.5861 107.193 82.4538C107.956 81.3215 108.985 80.3939 110.19 79.7527C111.395 79.1114 112.74 78.776 114.105 78.7761H130.771C132.982 78.7761 135.101 79.6541 136.664 81.2169C138.227 82.7797 139.105 84.8993 139.105 87.1095C139.105 89.3196 138.227 91.4392 136.664 93.002C135.101 94.5648 132.982 95.4428 130.771 95.4428Z" fill="white"/>
</g>
<path d="M22.7133 137.056C21.4493 137.056 20.2733 136.84 19.1853 136.408C18.0973 135.96 17.1453 135.344 16.3293 134.56C15.5133 133.76 14.8733 132.84 14.4093 131.8C13.9613 130.744 13.7373 129.608 13.7373 128.392C13.7373 127.176 13.9613 126.048 14.4093 125.008C14.8733 123.952 15.5133 123.032 16.3293 122.248C17.1453 121.448 18.0973 120.832 19.1853 120.4C20.2733 119.952 21.4493 119.728 22.7133 119.728C23.9773 119.728 25.1533 119.952 26.2413 120.4C27.3293 120.832 28.2813 121.448 29.0973 122.248C29.9133 123.032 30.5453 123.952 30.9933 125.008C31.4573 126.048 31.6893 127.176 31.6893 128.392C31.6893 129.608 31.4573 130.744 30.9933 131.8C30.5453 132.84 29.9133 133.76 29.0973 134.56C28.2813 135.344 27.3293 135.96 26.2413 136.408C25.1533 136.84 23.9773 137.056 22.7133 137.056ZM22.7133 133.264C23.3853 133.264 24.0093 133.144 24.5853 132.904C25.1613 132.648 25.6573 132.304 26.0733 131.872C26.5053 131.44 26.8413 130.928 27.0813 130.336C27.3213 129.728 27.4413 129.08 27.4413 128.392C27.4413 127.688 27.3213 127.04 27.0813 126.448C26.8413 125.856 26.5053 125.344 26.0733 124.912C25.6573 124.48 25.1613 124.144 24.5853 123.904C24.0093 123.648 23.3853 123.52 22.7133 123.52C22.0413 123.52 21.4173 123.648 20.8413 123.904C20.2653 124.144 19.7613 124.48 19.3293 124.912C18.9133 125.344 18.5853 125.856 18.3453 126.448C18.1053 127.04 17.9853 127.688 17.9853 128.392C17.9853 129.08 18.1053 129.728 18.3453 130.336C18.5853 130.928 18.9133 131.44 19.3293 131.872C19.7613 132.304 20.2653 132.648 20.8413 132.904C21.4173 133.144 22.0413 133.264 22.7133 133.264ZM38.1553 136.792L31.3632 119.992H35.8273L40.6033 132.496L45.4753 119.992H49.7713L42.8833 136.792H38.1553ZM50.9936 136.792V119.992H59.5856C60.7376 119.992 61.7616 120.224 62.6576 120.688C63.5536 121.136 64.2496 121.768 64.7456 122.584C65.2576 123.384 65.5136 124.304 65.5136 125.344C65.5136 126.4 65.2256 127.344 64.6496 128.176C64.0736 129.008 63.3136 129.64 62.3696 130.072L66.0416 136.792H61.4336L58.2656 130.672H55.1216V136.792H50.9936ZM55.1216 127.312H59.2016C59.8416 127.312 60.3536 127.136 60.7376 126.784C61.1376 126.432 61.3376 125.976 61.3376 125.416C61.3376 124.856 61.1376 124.4 60.7376 124.048C60.3536 123.696 59.8416 123.52 59.2016 123.52H55.1216V127.312ZM70.7617 136.792L77.6497 119.992H82.3777L89.1697 136.792H84.7057L83.1697 132.736H76.6177L75.0577 136.792H70.7617ZM77.8657 129.448H81.9457L79.9297 124.072L77.8657 129.448ZM95.3774 136.96C94.1774 136.96 93.0814 136.672 92.0894 136.096C91.1134 135.504 90.3374 134.72 89.7614 133.744C89.1854 132.752 88.8974 131.648 88.8974 130.432C88.8974 129.216 89.1854 128.12 89.7614 127.144C90.3534 126.152 91.1454 125.368 92.1374 124.792C93.1454 124.216 94.2654 123.928 95.4974 123.928C96.0894 123.928 96.6574 124 97.2014 124.144C97.7454 124.288 98.2574 124.496 98.7374 124.768V119.992L102.625 119.392V136.792H98.7854V135.856C97.7774 136.592 96.6414 136.96 95.3774 136.96ZM96.0494 133.648C96.5934 133.648 97.0894 133.568 97.5374 133.408C97.9854 133.232 98.3854 132.976 98.7374 132.64V128.2C98.4014 127.88 98.0014 127.64 97.5374 127.48C97.0734 127.304 96.5774 127.216 96.0494 127.216C95.4254 127.216 94.8574 127.36 94.3454 127.648C93.8494 127.92 93.4494 128.304 93.1454 128.8C92.8574 129.28 92.7134 129.824 92.7134 130.432C92.7134 131.04 92.8574 131.592 93.1454 132.088C93.4494 132.568 93.8494 132.952 94.3454 133.24C94.8574 133.512 95.4254 133.648 96.0494 133.648ZM109.212 136.792L103.788 124.096H108.012L111.156 131.872L114.3 124.096H118.428L113.004 136.792H109.212ZM123.389 137.008C122.493 137.008 121.693 136.84 120.989 136.504C120.301 136.168 119.757 135.704 119.357 135.112C118.973 134.52 118.781 133.84 118.781 133.072C118.781 131.856 119.237 130.92 120.149 130.264C121.077 129.592 122.365 129.256 124.013 129.256C125.005 129.256 125.965 129.376 126.893 129.616V128.992C126.893 128.352 126.685 127.88 126.269 127.576C125.869 127.256 125.269 127.096 124.469 127.096C123.973 127.096 123.413 127.176 122.789 127.336C122.181 127.496 121.461 127.752 120.629 128.104L119.237 125.248C120.277 124.784 121.277 124.44 122.237 124.216C123.213 123.976 124.189 123.856 125.165 123.856C126.925 123.856 128.293 124.28 129.269 125.128C130.245 125.96 130.733 127.136 130.733 128.656V136.792H126.893V136.024C126.381 136.376 125.837 136.632 125.261 136.792C124.701 136.936 124.077 137.008 123.389 137.008ZM122.477 133C122.477 133.4 122.653 133.712 123.005 133.936C123.357 134.16 123.845 134.272 124.469 134.272C124.933 134.272 125.365 134.224 125.765 134.128C126.181 134.032 126.557 133.88 126.893 133.672V132.04C126.525 131.944 126.149 131.872 125.765 131.824C125.381 131.776 124.989 131.752 124.589 131.752C123.917 131.752 123.397 131.864 123.029 132.088C122.661 132.296 122.477 132.6 122.477 133ZM133.044 136.792V124.096H136.932V124.96C137.892 124.224 139.028 123.856 140.34 123.856C141.332 123.856 142.204 124.072 142.956 124.504C143.724 124.936 144.324 125.536 144.756 126.304C145.188 127.072 145.404 127.96 145.404 128.968V136.792H141.516V129.496C141.516 128.792 141.308 128.232 140.892 127.816C140.476 127.4 139.916 127.192 139.212 127.192C138.716 127.192 138.276 127.28 137.892 127.456C137.524 127.632 137.204 127.88 136.932 128.2V136.792H133.044ZM153.86 137.032C152.596 137.032 151.452 136.744 150.428 136.168C149.42 135.592 148.62 134.808 148.028 133.816C147.436 132.808 147.14 131.688 147.14 130.456C147.14 129.208 147.436 128.088 148.028 127.096C148.62 126.104 149.42 125.32 150.428 124.744C151.452 124.152 152.596 123.856 153.86 123.856C154.9 123.856 155.892 124.064 156.836 124.48C157.78 124.88 158.58 125.456 159.236 126.208L156.86 128.68C156.412 128.168 155.956 127.8 155.492 127.576C155.028 127.336 154.516 127.216 153.956 127.216C153.396 127.216 152.892 127.36 152.444 127.648C151.996 127.92 151.644 128.304 151.388 128.8C151.132 129.28 151.004 129.832 151.004 130.456C151.004 131.064 151.132 131.616 151.388 132.112C151.66 132.592 152.028 132.976 152.492 133.264C152.956 133.536 153.476 133.672 154.052 133.672C154.58 133.672 155.068 133.56 155.516 133.336C155.964 133.112 156.396 132.768 156.812 132.304L159.116 134.704C158.476 135.44 157.692 136.016 156.764 136.432C155.836 136.832 154.868 137.032 153.86 137.032ZM166.638 137.032C165.342 137.032 164.166 136.744 163.11 136.168C162.07 135.576 161.246 134.784 160.638 133.792C160.03 132.8 159.726 131.688 159.726 130.456C159.726 129.224 160.014 128.112 160.59 127.12C161.182 126.128 161.982 125.344 162.99 124.768C163.998 124.176 165.118 123.88 166.35 123.88C167.598 123.88 168.702 124.184 169.662 124.792C170.622 125.384 171.374 126.2 171.918 127.24C172.478 128.28 172.758 129.472 172.758 130.816V131.776H163.71C163.886 132.176 164.118 132.528 164.406 132.832C164.71 133.136 165.07 133.376 165.486 133.552C165.902 133.712 166.35 133.792 166.83 133.792C167.358 133.792 167.838 133.712 168.27 133.552C168.702 133.376 169.07 133.136 169.374 132.832L171.942 135.112C171.142 135.784 170.318 136.272 169.47 136.576C168.638 136.88 167.694 137.032 166.638 137.032ZM163.638 129.064H168.942C168.814 128.648 168.614 128.296 168.342 128.008C168.086 127.704 167.782 127.472 167.43 127.312C167.078 127.136 166.694 127.048 166.278 127.048C165.846 127.048 165.454 127.128 165.102 127.288C164.75 127.448 164.446 127.68 164.19 127.984C163.95 128.272 163.766 128.632 163.638 129.064ZM180.596 136.96C179.396 136.96 178.3 136.672 177.308 136.096C176.332 135.504 175.556 134.72 174.98 133.744C174.404 132.752 174.116 131.648 174.116 130.432C174.116 129.216 174.404 128.12 174.98 127.144C175.572 126.152 176.364 125.368 177.356 124.792C178.364 124.216 179.484 123.928 180.716 123.928C181.308 123.928 181.876 124 182.42 124.144C182.964 124.288 183.476 124.496 183.956 124.768V119.992L187.844 119.392V136.792H184.004V135.856C182.996 136.592 181.86 136.96 180.596 136.96ZM181.268 133.648C181.812 133.648 182.308 133.568 182.756 133.408C183.204 133.232 183.604 132.976 183.956 132.64V128.2C183.62 127.88 183.22 127.64 182.756 127.48C182.292 127.304 181.796 127.216 181.268 127.216C180.644 127.216 180.076 127.36 179.564 127.648C179.068 127.92 178.668 128.304 178.364 128.8C178.076 129.28 177.932 129.824 177.932 130.432C177.932 131.04 178.076 131.592 178.364 132.088C178.668 132.568 179.068 132.952 179.564 133.24C180.076 133.512 180.644 133.648 181.268 133.648ZM63.3674 163.032C62.0234 163.032 60.7354 162.768 59.5034 162.24C58.2714 161.712 57.1914 160.952 56.2634 159.96L57.6314 158.448C58.5114 159.36 59.4314 160.04 60.3914 160.488C61.3674 160.936 62.3914 161.16 63.4634 161.16C64.3114 161.16 65.0554 161.032 65.6954 160.776C66.3514 160.52 66.8634 160.16 67.2314 159.696C67.5994 159.216 67.7834 158.68 67.7834 158.088C67.7834 157.272 67.4954 156.648 66.9194 156.216C66.3594 155.784 65.4234 155.464 64.1114 155.256L61.5194 154.824C59.9354 154.552 58.7594 154.064 57.9914 153.36C57.2394 152.656 56.8634 151.712 56.8634 150.528C56.8634 149.584 57.1114 148.752 57.6074 148.032C58.1194 147.312 58.8234 146.76 59.7194 146.376C60.6314 145.976 61.6874 145.776 62.8874 145.776C64.0874 145.776 65.2634 145.976 66.4154 146.376C67.5834 146.76 68.6394 147.312 69.5834 148.032L68.3594 149.688C66.5354 148.296 64.6794 147.6 62.7914 147.6C62.0234 147.6 61.3514 147.72 60.7754 147.96C60.1994 148.184 59.7514 148.504 59.4314 148.92C59.1114 149.32 58.9514 149.8 58.9514 150.36C58.9514 151.096 59.1994 151.664 59.6954 152.064C60.1914 152.448 61.0154 152.728 62.1674 152.904L64.7114 153.312C66.5194 153.616 67.8394 154.136 68.6714 154.872C69.5034 155.608 69.9194 156.632 69.9194 157.944C69.9194 158.952 69.6394 159.84 69.0794 160.608C68.5354 161.376 67.7674 161.976 66.7754 162.408C65.7994 162.824 64.6634 163.032 63.3674 163.032ZM78.0125 163.008C76.8445 163.008 75.7805 162.736 74.8205 162.192C73.8765 161.632 73.1245 160.88 72.5645 159.936C72.0045 158.976 71.7245 157.904 71.7245 156.72C71.7245 155.568 71.9885 154.52 72.5165 153.576C73.0605 152.632 73.7885 151.88 74.7005 151.32C75.6125 150.76 76.6285 150.48 77.7485 150.48C78.8525 150.48 79.8365 150.76 80.7005 151.32C81.5645 151.88 82.2525 152.64 82.7645 153.6C83.2765 154.544 83.5325 155.6 83.5325 156.768V157.392H73.7885C73.8845 158.112 74.1325 158.768 74.5325 159.36C74.9325 159.936 75.4365 160.392 76.0445 160.728C76.6685 161.064 77.3565 161.232 78.1085 161.232C78.7165 161.232 79.3005 161.136 79.8605 160.944C80.4365 160.752 80.9245 160.48 81.3245 160.128L82.6205 161.472C81.9325 161.984 81.2125 162.368 80.4605 162.624C79.7245 162.88 78.9085 163.008 78.0125 163.008ZM73.8125 155.784H81.4925C81.3805 155.112 81.1405 154.512 80.7725 153.984C80.4205 153.44 79.9805 153.016 79.4525 152.712C78.9245 152.408 78.3405 152.256 77.7005 152.256C77.0445 152.256 76.4445 152.408 75.9005 152.712C75.3565 153 74.9005 153.416 74.5325 153.96C74.1645 154.488 73.9245 155.096 73.8125 155.784ZM90.5336 163.032C89.4296 163.032 88.5816 162.768 87.9896 162.24C87.3976 161.712 87.1016 160.952 87.1016 159.96V152.424H84.5096V150.672H87.1016V147.6L89.1416 147.096V150.672H92.7656V152.424H89.1416V159.456C89.1416 160.096 89.2776 160.552 89.5496 160.824C89.8376 161.096 90.3096 161.232 90.9656 161.232C91.3016 161.232 91.5976 161.208 91.8536 161.16C92.1256 161.112 92.4136 161.032 92.7176 160.92V162.696C92.4136 162.808 92.0616 162.888 91.6616 162.936C91.2616 163 90.8856 163.032 90.5336 163.032ZM99.7914 163.032C98.6874 163.032 97.8394 162.768 97.2474 162.24C96.6554 161.712 96.3594 160.952 96.3594 159.96V152.424H93.7674V150.672H96.3594V147.6L98.3994 147.096V150.672H102.023V152.424H98.3994V159.456C98.3994 160.096 98.5354 160.552 98.8074 160.824C99.0954 161.096 99.5674 161.232 100.223 161.232C100.559 161.232 100.855 161.208 101.111 161.16C101.383 161.112 101.671 161.032 101.975 160.92V162.696C101.671 162.808 101.319 162.888 100.919 162.936C100.519 163 100.143 163.032 99.7914 163.032ZM103.917 162.792V150.672H105.981V162.792H103.917ZM104.949 148.536C104.597 148.536 104.285 148.408 104.013 148.152C103.757 147.88 103.629 147.56 103.629 147.192C103.629 146.824 103.757 146.512 104.013 146.256C104.285 146 104.597 145.872 104.949 145.872C105.317 145.872 105.629 146 105.885 146.256C106.157 146.512 106.293 146.824 106.293 147.192C106.293 147.56 106.157 147.88 105.885 148.152C105.629 148.408 105.317 148.536 104.949 148.536ZM108.909 162.792V150.672H110.973V152.016C111.917 150.96 113.165 150.432 114.717 150.432C115.645 150.432 116.461 150.632 117.165 151.032C117.869 151.432 118.413 151.984 118.797 152.688C119.197 153.392 119.397 154.216 119.397 155.16V162.792H117.357V155.544C117.357 154.52 117.069 153.712 116.493 153.12C115.917 152.528 115.133 152.232 114.141 152.232C113.453 152.232 112.837 152.384 112.293 152.688C111.765 152.992 111.325 153.416 110.973 153.96V162.792H108.909ZM128.221 167.928C127.357 167.928 126.509 167.816 125.677 167.592C124.845 167.384 124.093 167.088 123.421 166.704L124.261 165.096C124.965 165.464 125.629 165.736 126.253 165.912C126.877 166.088 127.509 166.176 128.149 166.176C129.253 166.176 130.093 165.912 130.669 165.384C131.245 164.872 131.533 164.104 131.533 163.08V161.544C130.445 162.44 129.197 162.888 127.789 162.888C126.669 162.888 125.645 162.616 124.717 162.072C123.805 161.512 123.077 160.76 122.533 159.816C121.989 158.872 121.717 157.824 121.717 156.672C121.717 155.52 121.989 154.472 122.533 153.528C123.077 152.584 123.805 151.84 124.717 151.296C125.645 150.736 126.685 150.456 127.837 150.456C128.509 150.456 129.165 150.576 129.805 150.816C130.445 151.04 131.029 151.368 131.557 151.8V150.672H133.597V163.08C133.597 164.632 133.133 165.824 132.205 166.656C131.277 167.504 129.949 167.928 128.221 167.928ZM128.005 161.088C128.741 161.088 129.413 160.952 130.021 160.68C130.629 160.408 131.133 160.024 131.533 159.528V153.816C131.133 153.336 130.621 152.96 129.997 152.688C129.389 152.416 128.725 152.28 128.005 152.28C127.205 152.28 126.477 152.472 125.821 152.856C125.181 153.24 124.677 153.768 124.309 154.44C123.941 155.096 123.757 155.84 123.757 156.672C123.757 157.504 123.941 158.256 124.309 158.928C124.693 159.584 125.205 160.112 125.845 160.512C126.485 160.896 127.205 161.088 128.005 161.088ZM140.527 163.032C139.503 163.032 138.543 162.872 137.647 162.552C136.767 162.232 135.999 161.776 135.343 161.184L136.519 159.84C137.111 160.352 137.743 160.744 138.415 161.016C139.087 161.288 139.767 161.424 140.455 161.424C141.367 161.424 142.111 161.24 142.687 160.872C143.279 160.488 143.575 160 143.575 159.408C143.575 158.928 143.399 158.552 143.047 158.28C142.711 157.992 142.183 157.792 141.463 157.68L139.303 157.392C138.103 157.216 137.199 156.848 136.591 156.288C135.999 155.728 135.703 154.976 135.703 154.032C135.703 153.328 135.895 152.712 136.279 152.184C136.679 151.64 137.231 151.216 137.935 150.912C138.639 150.592 139.447 150.432 140.359 150.432C141.239 150.432 142.071 150.56 142.855 150.816C143.655 151.072 144.423 151.472 145.159 152.016L144.103 153.408C143.431 152.944 142.775 152.608 142.135 152.4C141.511 152.192 140.871 152.088 140.215 152.088C139.431 152.088 138.799 152.256 138.319 152.592C137.839 152.928 137.599 153.376 137.599 153.936C137.599 154.432 137.759 154.816 138.079 155.088C138.415 155.344 138.959 155.528 139.711 155.64L141.871 155.928C143.071 156.088 143.975 156.448 144.583 157.008C145.207 157.568 145.519 158.32 145.519 159.264C145.519 159.984 145.295 160.632 144.847 161.208C144.415 161.768 143.823 162.216 143.071 162.552C142.319 162.872 141.471 163.032 140.527 163.032Z" fill="white"/>
</g>
<defs>
<filter id="filter0_dd_6301_2605" x="39.2382" y="6.8903e-05" width="123.522" height="122.436" filterUnits="userSpaceOnUse" color-interpolation-filters="sRGB">
<feFlood flood-opacity="0" result="BackgroundImageFix"/>
<feColorMatrix in="SourceAlpha" type="matrix" values="0 0 0 0 0 0 0 0 0 0 0 0 0 0 0 0 0 0 127 0" result="hardAlpha"/>
<feOffset dy="1.07563"/>
<feGaussianBlur stdDeviation="6.81681"/>
<feComposite in2="hardAlpha" operator="out"/>
<feColorMatrix type="matrix" values="0 0 0 0 0 0 0 0 0 0 0 0 0 0 0 0 0 0 0.11 0"/>
<feBlend mode="normal" in2="BackgroundImageFix" result="effect1_dropShadow_6301_2605"/>
<feColorMatrix in="SourceAlpha" type="matrix" values="0 0 0 0 0 0 0 0 0 0 0 0 0 0 0 0 0 0 127 0" result="hardAlpha"/>
<feOffset dy="1.13224"/>
<feGaussianBlur stdDeviation="12.0301"/>
<feComposite in2="hardAlpha" operator="out"/>
<feColorMatrix type="matrix" values="0 0 0 0 0 0 0 0 0 0 0 0 0 0 0 0 0 0 0.25 0"/>
<feBlend mode="normal" in2="effect1_dropShadow_6301_2605" result="effect2_dropShadow_6301_2605"/>
<feBlend mode="normal" in="SourceGraphic" in2="effect2_dropShadow_6301_2605" result="shape"/>
</filter>
<filter id="filter1_dd_6301_2605" x="81.7108" y="47.5152" width="81.4543" height="73.1201" filterUnits="userSpaceOnUse" color-interpolation-filters="sRGB">
<feFlood flood-opacity="0" result="BackgroundImageFix"/>
<feColorMatrix in="SourceAlpha" type="matrix" values="0 0 0 0 0 0 0 0 0 0 0 0 0 0 0 0 0 0 127 0" result="hardAlpha"/>
<feOffset dy="1.07563"/>
<feGaussianBlur stdDeviation="6.81681"/>
<feComposite in2="hardAlpha" operator="out"/>
<feColorMatrix type="matrix" values="0 0 0 0 0 0 0 0 0 0 0 0 0 0 0 0 0 0 0.11 0"/>
<feBlend mode="normal" in2="BackgroundImageFix" result="effect1_dropShadow_6301_2605"/>
<feColorMatrix in="SourceAlpha" type="matrix" values="0 0 0 0 0 0 0 0 0 0 0 0 0 0 0 0 0 0 127 0" result="hardAlpha"/>
<feOffset dy="1.13224"/>
<feGaussianBlur stdDeviation="12.0301"/>
<feComposite in2="hardAlpha" operator="out"/>
<feColorMatrix type="matrix" values="0 0 0 0 0 0 0 0 0 0 0 0 0 0 0 0 0 0 0.25 0"/>
<feBlend mode="normal" in2="effect1_dropShadow_6301_2605" result="effect2_dropShadow_6301_2605"/>
<feBlend mode="normal" in="SourceGraphic" in2="effect2_dropShadow_6301_2605" result="shape"/>
</filter>
</defs>
</svg>
