<svg width="24" height="24" viewBox="0 0 24 24" fill="none" xmlns="http://www.w3.org/2000/svg">
<path d="M12.0001 2C12.245 2.00003 12.4814 2.08996 12.6645 2.25272C12.8475 2.41547 12.9644 2.63975 12.9931 2.883L13.0001 3V20C12.9998 20.2549 12.9022 20.5 12.7272 20.6854C12.5523 20.8707 12.3131 20.9822 12.0587 20.9972C11.8043 21.0121 11.5537 20.9293 11.3583 20.7657C11.1628 20.6021 11.0372 20.3701 11.0071 20.117L11.0001 20V3C11.0001 2.73478 11.1055 2.48043 11.293 2.29289C11.4805 2.10536 11.7349 2 12.0001 2ZM7.8001 5C8.06531 5 8.31967 5.10536 8.5072 5.29289C8.69474 5.48043 8.8001 5.73478 8.8001 6V17C8.8001 17.2652 8.69474 17.5196 8.5072 17.7071C8.31967 17.8946 8.06531 18 7.8001 18C7.53488 18 7.28053 17.8946 7.09299 17.7071C6.90546 17.5196 6.8001 17.2652 6.8001 17V6C6.8001 5.73478 6.90546 5.48043 7.09299 5.29289C7.28053 5.10536 7.53488 5 7.8001 5ZM16.2001 5C16.4653 5 16.7197 5.10536 16.9072 5.29289C17.0947 5.48043 17.2001 5.73478 17.2001 6V17C17.2001 17.2652 17.0947 17.5196 16.9072 17.7071C16.7197 17.8946 16.4653 18 16.2001 18C15.9349 18 15.6805 17.8946 15.493 17.7071C15.3055 17.5196 15.2001 17.2652 15.2001 17V6C15.2001 5.73478 15.3055 5.48043 15.493 5.29289C15.6805 5.10536 15.9349 5 16.2001 5ZM3.6001 8C3.86531 8 4.11967 8.10536 4.3072 8.29289C4.49474 8.48043 4.6001 8.73478 4.6001 9V14C4.6001 14.2652 4.49474 14.5196 4.3072 14.7071C4.11967 14.8946 3.86531 15 3.6001 15C3.33488 15 3.08053 14.8946 2.89299 14.7071C2.70545 14.5196 2.6001 14.2652 2.6001 14V9C2.6001 8.73478 2.70545 8.48043 2.89299 8.29289C3.08053 8.10536 3.33488 8 3.6001 8ZM20.4001 8C20.645 8.00003 20.8814 8.08996 21.0645 8.25272C21.2475 8.41547 21.3644 8.63975 21.3931 8.883L21.4001 9V14C21.3998 14.2549 21.3022 14.5 21.1272 14.6854C20.9523 14.8707 20.7131 14.9822 20.4587 14.9972C20.2043 15.0121 19.9537 14.9293 19.7583 14.7657C19.5628 14.6021 19.4372 14.3701 19.4071 14.117L19.4001 14V9C19.4001 8.73478 19.5055 8.48043 19.693 8.29289C19.8805 8.10536 20.1349 8 20.4001 8Z" fill="white"/>
</svg>
