<svg width="24" height="24" viewBox="0 0 24 24" fill="none" xmlns="http://www.w3.org/2000/svg">
<path fill-rule="evenodd" clip-rule="evenodd" d="M9.71897 3.34561C9.7668 3.10631 9.89604 2.89096 10.0847 2.73617C10.2734 2.58139 10.5098 2.49673 10.7539 2.49658H13.246C13.49 2.49673 13.7265 2.58139 13.9152 2.73617C14.1038 2.89096 14.2331 3.10631 14.2809 3.34561L14.6304 5.09012C15.368 5.37121 16.0557 5.76874 16.6675 6.26756L18.3549 5.69732C18.5861 5.6192 18.8372 5.62353 19.0655 5.70958C19.2938 5.79563 19.4853 5.95809 19.6074 6.16935L20.8534 8.32781C20.9756 8.53911 21.0207 8.78619 20.9813 9.02703C20.9418 9.26787 20.8201 9.4876 20.637 9.64887L19.299 10.8242C19.4238 11.6035 19.4238 12.3977 19.299 13.177L20.637 14.3523C20.8201 14.5134 20.9418 14.7328 20.9814 14.9735C21.0211 15.2141 20.9762 15.461 20.8545 15.6723L19.6084 17.8318C19.4863 18.0433 19.2946 18.2059 19.0661 18.292C18.8375 18.3781 18.5862 18.3822 18.3549 18.3038L16.6675 17.7336C16.0557 18.2324 15.368 18.63 14.6304 18.911L14.2819 20.6556C14.2341 20.8949 14.1049 21.1102 13.9162 21.265C13.7276 21.4198 13.4911 21.5044 13.2471 21.5046H10.7539C10.5098 21.5044 10.2734 21.4198 10.0847 21.265C9.89604 21.1102 9.7668 20.8949 9.71897 20.6556L9.36944 18.911C8.63186 18.63 7.94413 18.2324 7.33241 17.7336L5.64492 18.3038C5.41377 18.382 5.1627 18.3776 4.93438 18.2916C4.70607 18.2055 4.51459 18.0431 4.39251 17.8318L3.14643 15.6734C3.0243 15.4621 2.97913 15.215 3.01859 14.9741C3.05806 14.7333 3.17973 14.5136 3.36291 14.3523L4.70086 13.1759C4.57626 12.397 4.57626 11.6032 4.70086 10.8242L3.36291 9.64887C3.17981 9.4878 3.0581 9.26833 3.01845 9.02771C2.9788 8.7871 3.02364 8.54017 3.14537 8.32887L4.39145 6.16935C4.51358 5.95786 4.70523 5.79524 4.93377 5.70918C5.16232 5.62311 5.41363 5.61892 5.64492 5.69732L7.33241 6.26756C7.94444 5.76862 8.63254 5.37109 9.37049 5.09012L9.71897 3.34561ZM11.9999 15.1686C12.8401 15.1686 13.6459 14.8348 14.24 14.2407C14.8342 13.6466 15.1679 12.8408 15.1679 12.0006C15.1679 11.1604 14.8342 10.3546 14.24 9.76047C13.6459 9.16635 12.8401 8.83258 11.9999 8.83258C11.1597 8.83258 10.3539 9.16635 9.75982 9.76047C9.1657 10.3546 8.83193 11.1604 8.83193 12.0006C8.83193 12.8408 9.1657 13.6466 9.75982 14.2407C10.3539 14.8348 11.1597 15.1686 11.9999 15.1686Z" fill="white"/>
</svg>
