<svg width="24" height="24" viewBox="0 0 24 24" fill="none" xmlns="http://www.w3.org/2000/svg">
<path d="M11.0502 9.967V15.8L12.0002 17.7L12.9502 15.8V9.967C14.5842 9.5395 15.8002 8.067 15.8002 6.3C15.8002 4.2005 14.0997 2.5 12.0002 2.5C9.9007 2.5 8.2002 4.2005 8.2002 6.3C8.2002 8.067 9.4162 9.5395 11.0502 9.967ZM12.0002 4.4C13.0452 4.4 13.9002 5.255 13.9002 6.3C13.9002 7.345 13.0452 8.2 12.0002 8.2C10.9552 8.2 10.1002 7.345 10.1002 6.3C10.1002 5.255 10.9552 4.4 12.0002 4.4Z" fill="white"/>
<path d="M14.85 14.0615V15.971C17.9755 16.3605 19.6 17.3105 19.6 17.7C19.6 18.1845 16.9875 19.6 12 19.6C7.0125 19.6 4.4 18.1845 4.4 17.7C4.4 17.32 6.0245 16.3605 9.15 15.971V14.0615C5.5875 14.4605 2.5 15.6385 2.5 17.7C2.5 20.3125 7.421 21.5 12 21.5C16.579 21.5 21.5 20.3125 21.5 17.7C21.5 15.629 18.4125 14.4605 14.85 14.0615Z" fill="white"/>
</svg>
