<svg width="24" height="24" viewBox="0 0 24 24" fill="none" xmlns="http://www.w3.org/2000/svg">
<path d="M20.0799 11.9948C19.8371 11.9966 19.5966 12.0421 19.3699 12.1292L16.9479 10.1465C17.0075 9.93038 17.0499 9.70616 17.0499 9.46982C17.0499 8.06996 15.9248 6.94482 14.5249 6.94482C13.125 6.94482 11.9999 8.06996 11.9999 9.46982C11.9999 9.86978 12.1009 10.2425 12.2645 10.5778L9.32643 14.0502C9.20887 14.0279 9.08956 14.016 8.9699 14.0148C8.78911 14.0148 8.61842 14.0451 8.45278 14.0896L5.86415 11.5009C5.9096 11.3363 5.9399 11.1656 5.9399 10.9848C5.9399 9.86574 5.03898 8.96482 3.9199 8.96482C2.80082 8.96482 1.8999 9.86574 1.8999 10.9848C1.8999 12.1039 2.80082 13.0048 3.9199 13.0048C4.10069 13.0048 4.27138 12.9745 4.43702 12.9301L7.02565 15.5187C6.9782 15.6868 6.95274 15.8602 6.9499 16.0348C6.9499 17.1539 7.85082 18.0548 8.9699 18.0548C10.089 18.0548 10.9899 17.1539 10.9899 16.0348C10.9899 15.7955 10.9414 15.5702 10.8657 15.3571L13.8078 11.8807C14.0371 11.9474 14.2744 11.9948 14.5249 11.9948C14.9234 11.9918 15.3155 11.8946 15.6692 11.711L18.0922 13.6936C18.0729 13.7997 18.0621 13.9071 18.0599 14.0148C18.0599 15.1339 18.9608 16.0348 20.0799 16.0348C21.199 16.0348 22.0999 15.1339 22.0999 14.0148C22.0999 12.8957 21.199 11.9948 20.0799 11.9948Z" fill="white"/>
</svg>
