<svg width="24" height="24" viewBox="0 0 24 24" fill="none" xmlns="http://www.w3.org/2000/svg">
<path d="M11.9996 6.12008C14.2976 6.12008 16.363 6.91332 17.754 8.34016C18.8981 8.49042 19.9774 8.95764 20.87 9.68903C19.3095 6.40966 16.0772 4.57568 11.9996 4.57568C7.97772 4.57568 4.72309 6.40718 3.14404 9.67666C3.96232 9.01028 4.93743 8.56426 5.97668 8.381C7.34164 6.89228 9.49242 6.12008 11.9996 6.12008Z" fill="white"/>
<path d="M16.9499 19.4249C15.6626 19.4248 14.4259 18.9232 13.5022 18.0265L13.4998 18.0241C13.3932 17.9438 13.2787 17.8746 13.1582 17.8174C12.795 17.6505 12.3996 17.5655 11.9999 17.5687C11.4876 17.5687 11.0978 17.6961 10.8428 17.8174C10.7219 17.8745 10.607 17.9438 10.5001 18.0241L10.4976 18.0265C9.91572 18.5914 9.204 19.0047 8.42499 19.23C7.64598 19.4553 6.82354 19.4858 6.02998 19.3188C5.23643 19.1517 4.49607 18.7923 3.874 18.272C3.25193 17.7518 2.76721 17.0866 2.46245 16.3351C2.1577 15.5836 2.04224 14.7688 2.12624 13.9622C2.21023 13.1556 2.49111 12.382 2.94417 11.7094C3.39723 11.0368 4.00859 10.4859 4.72451 10.105C5.44042 9.72405 6.23896 9.52485 7.0499 9.5249H16.9499C18.2627 9.5249 19.5218 10.0464 20.4501 10.9747C21.3784 11.903 21.8999 13.1621 21.8999 14.4749C21.8999 15.7877 21.3784 17.0468 20.4501 17.9751C19.5218 18.9034 18.2627 19.4249 16.9499 19.4249Z" fill="white"/>
</svg>
