<svg width="248" height="32" viewBox="0 0 248 32" id="svg20"
  version="1.1" xmlns="http://www.w3.org/2000/svg">
  <g opacity="0.2">
    <path
      d="M14.512 22.176C13.6693 22.176 12.8853 22.032 12.16 21.744C11.4347 21.4453 10.8 21.0347 10.256 20.512C9.712 19.9787 9.28533 19.3653 8.976 18.672C8.67733 17.968 8.528 17.2107 8.528 16.4C8.528 15.5893 8.67733 14.8373 8.976 14.144C9.28533 13.44 9.712 12.8267 10.256 12.304C10.8 11.7707 11.4347 11.36 12.16 11.072C12.8853 10.7733 13.6693 10.624 14.512 10.624C15.3547 10.624 16.1387 10.7733 16.864 11.072C17.5893 11.36 18.224 11.7707 18.768 12.304C19.312 12.8267 19.7333 13.44 20.032 14.144C20.3413 14.8373 20.496 15.5893 20.496 16.4C20.496 17.2107 20.3413 17.968 20.032 18.672C19.7333 19.3653 19.312 19.9787 18.768 20.512C18.224 21.0347 17.5893 21.4453 16.864 21.744C16.1387 22.032 15.3547 22.176 14.512 22.176ZM14.512 19.648C14.96 19.648 15.376 19.568 15.76 19.408C16.144 19.2373 16.4747 19.008 16.752 18.72C17.04 18.432 17.264 18.0907 17.424 17.696C17.584 17.2907 17.664 16.8587 17.664 16.4C17.664 15.9307 17.584 15.4987 17.424 15.104C17.264 14.7093 17.04 14.368 16.752 14.08C16.4747 13.792 16.144 13.568 15.76 13.408C15.376 13.2373 14.96 13.152 14.512 13.152C14.064 13.152 13.648 13.2373 13.264 13.408C12.88 13.568 12.544 13.792 12.256 14.08C11.9787 14.368 11.76 14.7093 11.6 15.104C11.44 15.4987 11.36 15.9307 11.36 16.4C11.36 16.8587 11.44 17.2907 11.6 17.696C11.76 18.0907 11.9787 18.432 12.256 18.72C12.544 19.008 12.88 19.2373 13.264 19.408C13.648 19.568 14.064 19.648 14.512 19.648ZM24.8066 22L20.2786 10.8H23.2546L26.4386 19.136L29.6866 10.8H32.5506L27.9586 22H24.8066ZM33.3655 22V10.8H39.0935C39.8615 10.8 40.5442 10.9547 41.1415 11.264C41.7388 11.5627 42.2028 11.984 42.5335 12.528C42.8748 13.0613 43.0455 13.6747 43.0455 14.368C43.0455 15.072 42.8535 15.7013 42.4695 16.256C42.0855 16.8107 41.5788 17.232 40.9495 17.52L43.3975 22H40.3255L38.2135 17.92H36.1175V22H33.3655ZM36.1175 15.68H38.8375C39.2642 15.68 39.6055 15.5627 39.8615 15.328C40.1282 15.0933 40.2615 14.7893 40.2615 14.416C40.2615 14.0427 40.1282 13.7387 39.8615 13.504C39.6055 13.2693 39.2642 13.152 38.8375 13.152H36.1175V15.68ZM46.763 22L51.355 10.8H54.507L59.035 22H56.059L55.035 19.296H50.667L49.627 22H46.763ZM51.499 17.104H54.219L52.875 13.52L51.499 17.104ZM63.1735 22.112C62.3735 22.112 61.6428 21.92 60.9815 21.536C60.3308 21.1413 59.8135 20.6187 59.4295 19.968C59.0455 19.3067 58.8535 18.5707 58.8535 17.76C58.8535 16.9493 59.0455 16.2187 59.4295 15.568C59.8242 14.9067 60.3522 14.384 61.0135 14C61.6855 13.616 62.4322 13.424 63.2535 13.424C63.6482 13.424 64.0268 13.472 64.3895 13.568C64.7522 13.664 65.0935 13.8027 65.4135 13.984V10.8L68.0055 10.4V22H65.4455V21.376C64.7735 21.8667 64.0162 22.112 63.1735 22.112ZM63.6215 19.904C63.9842 19.904 64.3148 19.8507 64.6135 19.744C64.9122 19.6267 65.1788 19.456 65.4135 19.232V16.272C65.1895 16.0587 64.9228 15.8987 64.6135 15.792C64.3042 15.6747 63.9735 15.616 63.6215 15.616C63.2055 15.616 62.8268 15.712 62.4855 15.904C62.1548 16.0853 61.8882 16.3413 61.6855 16.672C61.4935 16.992 61.3975 17.3547 61.3975 17.76C61.3975 18.1653 61.4935 18.5333 61.6855 18.864C61.8882 19.184 62.1548 19.44 62.4855 19.632C62.8268 19.8133 63.2055 19.904 63.6215 19.904ZM72.3965 22L68.7805 13.536H71.5965L73.6925 18.72L75.7885 13.536H78.5405L74.9245 22H72.3965ZM81.8478 22.144C81.2504 22.144 80.7171 22.032 80.2478 21.808C79.7891 21.584 79.4264 21.2747 79.1598 20.88C78.9038 20.4853 78.7758 20.032 78.7758 19.52C78.7758 18.7093 79.0798 18.0853 79.6878 17.648C80.3064 17.2 81.1651 16.976 82.2638 16.976C82.9251 16.976 83.5651 17.056 84.1838 17.216V16.8C84.1838 16.3733 84.0451 16.0587 83.7678 15.856C83.5011 15.6427 83.1011 15.536 82.5677 15.536C82.2371 15.536 81.8638 15.5893 81.4478 15.696C81.0424 15.8027 80.5624 15.9733 80.0078 16.208L79.0798 14.304C79.7731 13.9947 80.4398 13.7653 81.0798 13.616C81.7304 13.456 82.3811 13.376 83.0318 13.376C84.2051 13.376 85.1171 13.6587 85.7678 14.224C86.4184 14.7787 86.7438 15.5627 86.7438 16.576V22H84.1838V21.488C83.8424 21.7227 83.4798 21.8933 83.0958 22C82.7224 22.096 82.3064 22.144 81.8478 22.144ZM81.2398 19.472C81.2398 19.7387 81.3571 19.9467 81.5918 20.096C81.8264 20.2453 82.1518 20.32 82.5677 20.32C82.8771 20.32 83.1651 20.288 83.4318 20.224C83.7091 20.16 83.9598 20.0587 84.1838 19.92V18.832C83.9384 18.768 83.6878 18.72 83.4318 18.688C83.1758 18.656 82.9144 18.64 82.6478 18.64C82.1998 18.64 81.8531 18.7147 81.6078 18.864C81.3624 19.0027 81.2398 19.2053 81.2398 19.472ZM88.2844 22V13.536H90.8764V14.112C91.5164 13.6213 92.2737 13.376 93.1484 13.376C93.8097 13.376 94.391 13.52 94.8924 13.808C95.4044 14.096 95.8044 14.496 96.0924 15.008C96.3804 15.52 96.5244 16.112 96.5244 16.784V22H93.9324V17.136C93.9324 16.6667 93.7937 16.2933 93.5164 16.016C93.239 15.7387 92.8657 15.6 92.3964 15.6C92.0657 15.6 91.7724 15.6587 91.5164 15.776C91.271 15.8933 91.0577 16.0587 90.8764 16.272V22H88.2844ZM102.162 22.16C101.319 22.16 100.556 21.968 99.8736 21.584C99.2016 21.2 98.6683 20.6773 98.2736 20.016C97.879 19.344 97.6816 18.5973 97.6816 17.776C97.6816 16.944 97.879 16.1973 98.2736 15.536C98.6683 14.8747 99.2016 14.352 99.8736 13.968C100.556 13.5733 101.319 13.376 102.162 13.376C102.855 13.376 103.516 13.5147 104.146 13.792C104.775 14.0587 105.308 14.4427 105.746 14.944L104.162 16.592C103.863 16.2507 103.559 16.0053 103.25 15.856C102.94 15.696 102.599 15.616 102.226 15.616C101.852 15.616 101.516 15.712 101.218 15.904C100.919 16.0853 100.684 16.3413 100.514 16.672C100.343 16.992 100.258 17.36 100.258 17.776C100.258 18.1813 100.343 18.5493 100.514 18.88C100.695 19.2 100.94 19.456 101.25 19.648C101.559 19.8293 101.906 19.92 102.29 19.92C102.642 19.92 102.967 19.8453 103.266 19.696C103.564 19.5467 103.852 19.3173 104.13 19.008L105.666 20.608C105.239 21.0987 104.716 21.4827 104.098 21.76C103.479 22.0267 102.834 22.16 102.162 22.16ZM110.68 22.16C109.816 22.16 109.032 21.968 108.328 21.584C107.635 21.1893 107.086 20.6613 106.68 20C106.275 19.3387 106.072 18.5973 106.072 17.776C106.072 16.9547 106.264 16.2133 106.648 15.552C107.043 14.8907 107.576 14.368 108.248 13.984C108.92 13.5893 109.667 13.392 110.488 13.392C111.32 13.392 112.056 13.5947 112.696 14C113.336 14.3947 113.838 14.9387 114.2 15.632C114.574 16.3253 114.76 17.12 114.76 18.016V18.656H108.728C108.846 18.9227 109 19.1573 109.192 19.36C109.395 19.5627 109.635 19.7227 109.912 19.84C110.19 19.9467 110.488 20 110.808 20C111.16 20 111.48 19.9467 111.768 19.84C112.056 19.7227 112.302 19.5627 112.504 19.36L114.216 20.88C113.683 21.328 113.134 21.6533 112.568 21.856C112.014 22.0587 111.384 22.16 110.68 22.16ZM108.68 16.848H112.216C112.131 16.5707 111.998 16.336 111.816 16.144C111.646 15.9413 111.443 15.7867 111.208 15.68C110.974 15.5627 110.718 15.504 110.44 15.504C110.152 15.504 109.891 15.5573 109.656 15.664C109.422 15.7707 109.219 15.9253 109.048 16.128C108.888 16.32 108.766 16.56 108.68 16.848ZM119.986 22.112C119.186 22.112 118.455 21.92 117.794 21.536C117.143 21.1413 116.626 20.6187 116.242 19.968C115.858 19.3067 115.666 18.5707 115.666 17.76C115.666 16.9493 115.858 16.2187 116.242 15.568C116.637 14.9067 117.165 14.384 117.826 14C118.498 13.616 119.245 13.424 120.066 13.424C120.461 13.424 120.839 13.472 121.202 13.568C121.565 13.664 121.906 13.8027 122.226 13.984V10.8L124.818 10.4V22H122.258V21.376C121.586 21.8667 120.829 22.112 119.986 22.112ZM120.434 19.904C120.797 19.904 121.127 19.8507 121.426 19.744C121.725 19.6267 121.991 19.456 122.226 19.232V16.272C122.002 16.0587 121.735 15.8987 121.426 15.792C121.117 15.6747 120.786 15.616 120.434 15.616C120.018 15.616 119.639 15.712 119.298 15.904C118.967 16.0853 118.701 16.3413 118.498 16.672C118.306 16.992 118.21 17.3547 118.21 17.76C118.21 18.1653 118.306 18.5333 118.498 18.864C118.701 19.184 118.967 19.44 119.298 19.632C119.639 19.8133 120.018 19.904 120.434 19.904ZM133.897 22.16C133.001 22.16 132.137 21.9893 131.305 21.648C130.473 21.296 129.737 20.7947 129.097 20.144L130.121 18.944C130.729 19.5413 131.347 19.9893 131.977 20.288C132.617 20.576 133.289 20.72 133.993 20.72C134.526 20.72 134.995 20.64 135.401 20.48C135.806 20.32 136.121 20.1013 136.345 19.824C136.579 19.536 136.697 19.2107 136.697 18.848C136.697 18.3467 136.521 17.9627 136.169 17.696C135.817 17.4293 135.235 17.2267 134.425 17.088L132.553 16.784C131.529 16.6133 130.761 16.288 130.249 15.808C129.747 15.328 129.497 14.688 129.497 13.888C129.497 13.2373 129.667 12.672 130.009 12.192C130.35 11.7013 130.83 11.3227 131.449 11.056C132.078 10.7893 132.809 10.656 133.641 10.656C134.441 10.656 135.23 10.7893 136.009 11.056C136.798 11.312 137.507 11.6853 138.137 12.176L137.209 13.456C136.003 12.5387 134.782 12.08 133.545 12.08C133.054 12.08 132.627 12.1493 132.265 12.288C131.902 12.4267 131.619 12.624 131.417 12.88C131.214 13.1253 131.113 13.4187 131.113 13.76C131.113 14.208 131.267 14.5493 131.577 14.784C131.886 15.0187 132.398 15.1947 133.113 15.312L134.921 15.616C136.105 15.808 136.974 16.1547 137.529 16.656C138.083 17.1573 138.361 17.8453 138.361 18.72C138.361 19.4027 138.174 20.0053 137.801 20.528C137.438 21.04 136.915 21.44 136.233 21.728C135.561 22.016 134.782 22.16 133.897 22.16ZM143.786 22.144C142.986 22.144 142.26 21.9573 141.61 21.584C140.97 21.2107 140.458 20.704 140.074 20.064C139.7 19.424 139.514 18.7093 139.514 17.92C139.514 17.1413 139.695 16.432 140.058 15.792C140.42 15.152 140.911 14.6453 141.53 14.272C142.148 13.8987 142.842 13.712 143.61 13.712C144.356 13.712 145.023 13.904 145.61 14.288C146.207 14.6613 146.676 15.1733 147.017 15.824C147.37 16.464 147.546 17.1893 147.546 18V18.448H141.13C141.204 18.8853 141.364 19.28 141.61 19.632C141.866 19.984 142.186 20.2613 142.57 20.464C142.964 20.6667 143.391 20.768 143.85 20.768C144.255 20.768 144.634 20.7093 144.986 20.592C145.348 20.464 145.658 20.288 145.914 20.064L146.938 21.072C146.468 21.4347 145.978 21.7067 145.466 21.888C144.954 22.0587 144.394 22.144 143.786 22.144ZM141.13 17.232H145.946C145.871 16.816 145.722 16.448 145.498 16.128C145.274 15.7973 144.991 15.5413 144.65 15.36C144.319 15.168 143.956 15.072 143.562 15.072C143.156 15.072 142.783 15.1627 142.442 15.344C142.1 15.5253 141.818 15.7813 141.594 16.112C141.37 16.432 141.215 16.8053 141.13 17.232ZM152.307 22.144C151.518 22.144 150.915 21.9627 150.499 21.6C150.083 21.2267 149.875 20.688 149.875 19.984V15.2H148.147V13.856H149.875V11.776L151.475 11.392V13.856H153.875V15.2H151.475V19.616C151.475 20.032 151.566 20.3307 151.747 20.512C151.928 20.6827 152.238 20.768 152.675 20.768C152.888 20.768 153.08 20.752 153.251 20.72C153.432 20.688 153.63 20.6347 153.843 20.56V21.92C153.63 21.9947 153.379 22.048 153.091 22.08C152.803 22.1227 152.542 22.144 152.307 22.144ZM158.698 22.144C157.908 22.144 157.306 21.9627 156.89 21.6C156.474 21.2267 156.266 20.688 156.266 19.984V15.2H154.538V13.856H156.266V11.776L157.866 11.392V13.856H160.266V15.2H157.866V19.616C157.866 20.032 157.956 20.3307 158.138 20.512C158.319 20.6827 158.628 20.768 159.066 20.768C159.279 20.768 159.471 20.752 159.642 20.72C159.823 20.688 160.02 20.6347 160.234 20.56V21.92C160.02 21.9947 159.77 22.048 159.482 22.08C159.194 22.1227 158.932 22.144 158.698 22.144ZM161.538 22V13.856H163.154V22H161.538ZM162.338 12.544C162.071 12.544 161.842 12.448 161.65 12.256C161.458 12.0533 161.362 11.8187 161.362 11.552C161.362 11.2747 161.458 11.04 161.65 10.848C161.842 10.656 162.071 10.56 162.338 10.56C162.615 10.56 162.85 10.656 163.042 10.848C163.234 11.04 163.33 11.2747 163.33 11.552C163.33 11.8187 163.234 12.0533 163.042 12.256C162.85 12.448 162.615 12.544 162.338 12.544ZM165.038 22V13.856H166.654V14.688C167.283 14.0267 168.099 13.696 169.102 13.696C169.72 13.696 170.27 13.8293 170.75 14.096C171.23 14.3627 171.603 14.736 171.87 15.216C172.136 15.696 172.27 16.2507 172.27 16.88V22H170.67V17.152C170.67 16.512 170.488 16.0107 170.126 15.648C169.763 15.2747 169.272 15.088 168.654 15.088C168.216 15.088 167.827 15.1787 167.486 15.36C167.155 15.5413 166.878 15.8027 166.654 16.144V22H165.038ZM178.164 25.424C177.566 25.424 176.985 25.3547 176.42 25.216C175.854 25.0773 175.342 24.88 174.884 24.624L175.508 23.36C175.977 23.6053 176.42 23.7867 176.836 23.904C177.262 24.0213 177.689 24.08 178.116 24.08C178.83 24.08 179.369 23.9147 179.732 23.584C180.105 23.2533 180.292 22.768 180.292 22.128V21.2C179.577 21.7653 178.766 22.048 177.86 22.048C177.102 22.048 176.409 21.8667 175.78 21.504C175.161 21.1307 174.67 20.6293 174.308 20C173.945 19.36 173.764 18.6507 173.764 17.872C173.764 17.104 173.945 16.4053 174.308 15.776C174.681 15.136 175.177 14.6347 175.796 14.272C176.425 13.8987 177.129 13.712 177.908 13.712C178.345 13.712 178.766 13.7867 179.172 13.936C179.588 14.0747 179.966 14.2773 180.308 14.544V13.856H181.892V22.128C181.892 23.184 181.572 23.9947 180.932 24.56C180.292 25.136 179.369 25.424 178.164 25.424ZM178.052 20.672C178.521 20.672 178.948 20.592 179.332 20.432C179.716 20.2613 180.036 20.0213 180.292 19.712V16.064C180.036 15.7653 179.71 15.536 179.316 15.376C178.932 15.2053 178.51 15.12 178.052 15.12C177.54 15.12 177.076 15.2427 176.66 15.488C176.254 15.7227 175.934 16.0533 175.7 16.48C175.465 16.896 175.348 17.36 175.348 17.872C175.348 18.4053 175.465 18.8853 175.7 19.312C175.945 19.728 176.27 20.0587 176.676 20.304C177.092 20.5493 177.55 20.672 178.052 20.672ZM186.572 22.16C185.868 22.16 185.207 22.0587 184.588 21.856C183.98 21.6427 183.452 21.344 183.004 20.96L183.884 19.888C184.3 20.2293 184.732 20.4853 185.18 20.656C185.628 20.8267 186.076 20.912 186.524 20.912C187.1 20.912 187.569 20.8 187.932 20.576C188.295 20.352 188.476 20.064 188.476 19.712C188.476 19.4133 188.369 19.184 188.156 19.024C187.943 18.8533 187.612 18.736 187.164 18.672L185.692 18.448C184.881 18.3307 184.273 18.08 183.868 17.696C183.463 17.312 183.26 16.8 183.26 16.16C183.26 15.6693 183.393 15.2427 183.66 14.88C183.927 14.5067 184.3 14.2187 184.78 14.016C185.26 13.8027 185.82 13.696 186.46 13.696C187.057 13.696 187.623 13.7813 188.156 13.952C188.7 14.1227 189.223 14.3893 189.724 14.752L188.924 15.808C188.465 15.5093 188.028 15.2907 187.612 15.152C187.196 15.0133 186.769 14.944 186.332 14.944C185.852 14.944 185.457 15.0507 185.148 15.264C184.849 15.4667 184.7 15.7333 184.7 16.064C184.7 16.3627 184.807 16.592 185.02 16.752C185.233 16.912 185.575 17.0293 186.044 17.104L187.516 17.312C188.327 17.4187 188.94 17.664 189.356 18.048C189.772 18.432 189.98 18.944 189.98 19.584C189.98 20.0747 189.831 20.5173 189.532 20.912C189.233 21.296 188.828 21.6 188.316 21.824C187.804 22.048 187.223 22.16 186.572 22.16Z"
      fill="white" />
  </g>
</svg>