<svg width="24" height="24" viewBox="0 0 24 24" fill="none" xmlns="http://www.w3.org/2000/svg">
<path fill-rule="evenodd" clip-rule="evenodd" d="M6.95635 3.15841C8.14724 2.68143 9.44885 2.5514 10.7106 2.78337C11.9723 3.01534 13.1425 3.59982 14.0859 4.46919C15.0293 5.33856 15.7072 6.45727 16.0412 7.69588C16.3752 8.93449 16.3517 10.2424 15.9734 11.4682L20.2364 15.0754C20.6205 15.4017 20.9327 15.8041 21.1534 16.2571C21.3742 16.7101 21.4987 17.2039 21.5191 17.7074C21.5395 18.211 21.4554 18.7132 21.272 19.1826C21.0886 19.652 20.81 20.0783 20.4537 20.4347C20.0973 20.791 19.671 21.0696 19.2016 21.253C18.7323 21.4364 18.23 21.5205 17.7264 21.5001C17.2229 21.4797 16.7291 21.3552 16.2761 21.1344C15.8231 20.9137 15.4207 20.6014 15.0944 20.2174L11.4882 15.9544C10.2622 16.3328 8.95421 16.3564 7.71546 16.0223C6.47671 15.6883 5.35789 15.0103 4.48847 14.0668C3.61906 13.1232 3.03461 11.9528 2.80276 10.6909C2.57091 9.42905 2.70115 8.12731 3.17839 6.93637C3.52572 6.06901 4.61429 5.95938 5.17991 6.57449L8.28746 9.94884L9.69037 9.66943L9.97173 8.26361L6.59543 5.16091C5.98033 4.59528 6.08802 3.50575 6.95635 3.15841ZM8.90354 4.64864L11.5842 7.11295C11.8966 7.40013 12.0363 7.82896 11.9529 8.24323L11.4969 10.5271C11.4499 10.7621 11.3343 10.978 11.1648 11.1474C10.9952 11.3168 10.7792 11.4321 10.5441 11.4788L8.26418 11.9319C8.06012 11.9725 7.84906 11.9599 7.65129 11.8953C7.45351 11.8308 7.27567 11.7164 7.13486 11.5633L4.66668 8.88356C4.56621 9.71808 4.68421 10.5644 5.00913 11.3396C5.33405 12.1148 5.85474 12.7923 6.52021 13.3058C7.18567 13.8192 7.9731 14.1511 8.80536 14.2688C9.63762 14.3864 10.4862 14.2859 11.2679 13.9771C11.5051 13.8835 11.7656 13.8663 12.013 13.9281C12.2603 13.9899 12.4822 14.1274 12.6475 14.3215L16.5769 18.9649C16.7292 19.1457 16.9175 19.2929 17.1298 19.3972C17.342 19.5015 17.5736 19.5605 17.8099 19.5705C18.0462 19.5806 18.2819 19.5415 18.5023 19.4557C18.7227 19.3698 18.9228 19.2392 19.09 19.072C19.2572 18.9047 19.3879 18.7046 19.4737 18.4843C19.5595 18.2639 19.5986 18.0281 19.5886 17.7919C19.5785 17.5556 19.5195 17.324 19.4152 17.1118C19.311 16.8995 19.1638 16.7112 18.9829 16.5588L14.3405 12.6295C14.1464 12.4642 14.0089 12.2423 13.9471 11.9949C13.8853 11.7475 13.9025 11.487 13.9961 11.2499C14.3056 10.4681 14.4065 9.6194 14.2891 8.78689C14.1716 7.95438 13.8398 7.16668 13.3262 6.50104C12.8126 5.8354 12.1348 5.31468 11.3593 4.98994C10.5838 4.6652 9.73723 4.54759 8.90257 4.64864H8.90354Z" fill="white"/>
</svg>
