<svg width="24" height="24" viewBox="0 0 24 24" fill="none" xmlns="http://www.w3.org/2000/svg">
<path fill-rule="evenodd" clip-rule="evenodd" d="M12 1.90723C12.0364 1.90723 12.0722 1.90995 12.1074 1.91406C12.1192 1.91545 12.1309 1.91711 12.1426 1.91895C12.1677 1.92286 12.1924 1.92769 12.2168 1.93359C12.2288 1.93652 12.241 1.93897 12.2529 1.94238C12.3226 1.96231 12.3884 1.99143 12.4502 2.02637C12.4551 2.02914 12.4609 2.03131 12.4658 2.03418L20.2646 6.62109C20.2714 6.62506 20.2776 6.63065 20.2842 6.63477C20.3062 6.64849 20.3277 6.66305 20.3486 6.67871C20.3581 6.68584 20.3678 6.69273 20.377 6.7002C20.3957 6.71539 20.413 6.73222 20.4307 6.74902C20.4757 6.79196 20.5156 6.83897 20.5508 6.88965C20.5592 6.90183 20.5692 6.91308 20.5771 6.92578C20.581 6.93202 20.5842 6.93901 20.5879 6.94531C20.593 6.95398 20.5977 6.96285 20.6025 6.97168C20.6156 6.99551 20.6279 7.01947 20.6387 7.04395C20.6432 7.05425 20.6472 7.06472 20.6514 7.0752C20.6614 7.10036 20.6701 7.12574 20.6777 7.15137C20.6804 7.16046 20.6831 7.16953 20.6855 7.17871C20.704 7.24864 20.7132 7.31967 20.7148 7.39062C20.715 7.39777 20.7168 7.40494 20.7168 7.41211V16.5879C20.7168 16.5901 20.7158 16.5925 20.7158 16.5947C20.7149 16.751 20.6748 16.9094 20.5898 17.0537C20.5526 17.117 20.5078 17.173 20.459 17.2236C20.4539 17.2289 20.4486 17.2341 20.4434 17.2393C20.4209 17.2615 20.3974 17.2822 20.373 17.3018C20.3682 17.3057 20.3634 17.3096 20.3584 17.3135C20.3283 17.3366 20.298 17.3589 20.2656 17.3779L20.2646 17.3789L12.4658 21.9658C12.4611 21.9686 12.455 21.97 12.4502 21.9727C12.3916 22.0058 12.3294 22.033 12.2637 22.0527C12.2427 22.059 12.2215 22.0636 12.2002 22.0684C12.1859 22.0715 12.1717 22.0746 12.1572 22.0771C12.14 22.0801 12.1228 22.083 12.1055 22.085C12.0842 22.0874 12.0627 22.0889 12.041 22.0898C12.0133 22.0911 11.9857 22.0911 11.958 22.0898C11.9363 22.0889 11.9148 22.0874 11.8936 22.085C11.8762 22.0829 11.859 22.0802 11.8418 22.0771C11.8273 22.0746 11.8131 22.0716 11.7988 22.0684C11.7776 22.0636 11.7563 22.059 11.7354 22.0527C11.6697 22.033 11.6074 22.0058 11.5488 21.9727C11.5443 21.9701 11.5387 21.9685 11.5342 21.9658L3.73633 17.3789L3.73438 17.3779C3.70381 17.3599 3.67498 17.339 3.64648 17.3174C3.63576 17.3092 3.62554 17.3006 3.61523 17.292C3.5979 17.2776 3.5808 17.2629 3.56445 17.2471C3.55416 17.2371 3.54396 17.2272 3.53418 17.2168C3.48817 17.1679 3.44566 17.114 3.41016 17.0537C3.39055 17.0204 3.37434 16.9858 3.35938 16.9512C3.35434 16.9395 3.34928 16.9279 3.34473 16.916C3.30774 16.8196 3.28754 16.7197 3.28418 16.6201V7.41211C3.28418 7.40494 3.28499 7.39777 3.28516 7.39062C3.28759 7.28403 3.30685 7.17683 3.34766 7.07422C3.35131 7.065 3.35543 7.05596 3.35938 7.04688C3.37729 7.00576 3.39837 6.96496 3.42285 6.92578C3.43487 6.90657 3.44776 6.88813 3.46094 6.87012C3.46493 6.86466 3.46854 6.85889 3.47266 6.85352C3.49363 6.82613 3.51659 6.80078 3.54004 6.77637C3.54913 6.76692 3.55885 6.7581 3.56836 6.74902C3.58663 6.73158 3.60457 6.71396 3.62402 6.69824C3.63069 6.69285 3.63769 6.68783 3.64453 6.68262C3.67131 6.66221 3.69893 6.64316 3.72754 6.62598C3.7303 6.62432 3.73355 6.62273 3.73633 6.62109L11.5342 2.03418C11.5388 2.03146 11.5442 2.029 11.5488 2.02637C11.6106 1.99139 11.6764 1.96238 11.7461 1.94238C11.758 1.93896 11.7702 1.93653 11.7822 1.93359C11.7932 1.93091 11.8043 1.92806 11.8154 1.92578L11.8799 1.91504C11.8838 1.91453 11.8877 1.91452 11.8916 1.91406C11.9272 1.90988 11.9633 1.90723 12 1.90723ZM6.00879 16.5869L11.083 19.5703V16.5879C11.083 16.0812 11.4933 15.6699 12 15.6699C12.5067 15.6699 12.917 16.0811 12.917 16.5879V19.5703L17.9902 16.5869L12 13.0645L6.00879 16.5869ZM5.96875 7.43457L8.35742 8.92773C8.78706 9.19626 8.91778 9.76269 8.64941 10.1924C8.38085 10.6221 7.81448 10.7529 7.38477 10.4844L5.11816 9.06738V14.9834L11.083 11.4756V4.42773L5.96875 7.43457ZM12.917 11.4746L18.8818 14.9834V9.06738L16.6152 10.4844C16.1855 10.7529 15.6192 10.622 15.3506 10.1924C15.0822 9.76268 15.2129 9.19627 15.6426 8.92773L18.0303 7.43457L12.917 4.42773V11.4746Z" fill="white"/>
</svg>
