<svg width="24" height="24" viewBox="0 0 24 24" fill="none" xmlns="http://www.w3.org/2000/svg">
<path d="M5.35285 11.6467H3.45361L12.0002 3.1001L20.5468 11.6467H18.6475M5.35285 11.6467V18.294C5.35285 18.7977 5.55295 19.2808 5.90913 19.637C6.2653 19.9932 6.74838 20.1933 7.25209 20.1933H16.7483C17.252 20.1933 17.7351 19.9932 18.0913 19.637C18.4474 19.2808 18.6475 18.7977 18.6475 18.294V11.6467" stroke="white" stroke-width="1.9" stroke-linecap="round" stroke-linejoin="round"/>
<path d="M9.20703 20.0256V14.4396C9.20703 13.9458 9.40321 13.4722 9.7524 13.123C10.1016 12.7738 10.5752 12.5776 11.069 12.5776H12.931C13.4249 12.5776 13.8985 12.7738 14.2477 13.123C14.5969 13.4722 14.793 13.9458 14.793 14.4396V20.0256" stroke="white" stroke-width="1.6758" stroke-linecap="round" stroke-linejoin="round"/>
</svg>
