<svg width="24" height="24" viewBox="0 0 24 24" fill="none" xmlns="http://www.w3.org/2000/svg">
<path d="M11.5 12C11.5 12.1326 11.5527 12.2598 11.6464 12.3536C11.7402 12.4473 11.8674 12.5 12 12.5C12.1326 12.5 12.2598 12.4473 12.3536 12.3536C12.4473 12.2598 12.5 12.1326 12.5 12C12.5 11.8674 12.4473 11.7402 12.3536 11.6464C12.2598 11.5527 12.1326 11.5 12 11.5C11.8674 11.5 11.7402 11.5527 11.6464 11.6464C11.5527 11.7402 11.5 11.8674 11.5 12Z" fill="white" stroke="white" stroke-width="2" stroke-linecap="round" stroke-linejoin="round"/>
<path d="M4.85954 12.0002C4.85954 12.938 5.04424 13.8665 5.40309 14.7329C5.76194 15.5992 6.28792 16.3864 6.951 17.0495C7.61407 17.7125 8.40126 18.2385 9.26761 18.5974C10.134 18.9562 11.0625 19.1409 12.0002 19.1409M4.85954 12.0002C4.85954 11.0625 5.04424 10.134 5.40309 9.26761C5.76194 8.40126 6.28792 7.61407 6.951 6.951C7.61407 6.28792 8.40126 5.76194 9.26761 5.40309C10.134 5.04424 11.0625 4.85954 12.0002 4.85954M4.85954 12.0002H2.81934M12.0002 19.1409C12.938 19.1409 13.8665 18.9562 14.7329 18.5974C15.5992 18.2385 16.3864 17.7125 17.0495 17.0495C17.7125 16.3864 18.2385 15.5992 18.5974 14.7329C18.9562 13.8665 19.1409 12.938 19.1409 12.0002M12.0002 19.1409V21.1811M19.1409 12.0002C19.1409 11.0625 18.9562 10.134 18.5974 9.26761C18.2385 8.40126 17.7125 7.61407 17.0495 6.951C16.3864 6.28792 15.5992 5.76194 14.7329 5.40309C13.8665 5.04424 12.938 4.85954 12.0002 4.85954M19.1409 12.0002H21.1811M12.0002 4.85954V2.81934" stroke="white" stroke-width="1.93819" stroke-linecap="round" stroke-linejoin="round"/>
</svg>
